<?xml version="1.0" encoding="UTF-8" standalone="no"?>
<!-- Generator: Adobe Illustrator 19.0.0, SVG Export Plug-In . SVG Version: 6.00 Build 0)  -->

<svg
   version="1.1"
   id="Capa_1"
   x="0px"
   y="0px"
   viewBox="0 0 409.6 409.6"
   style="enable-background:new 0 0 409.6 409.6;"
   xml:space="preserve"
   sodipodi:docname="download.svg"
   inkscape:version="1.1.1 (c3084ef, 2021-09-22)"
   xmlns:inkscape="http://www.inkscape.org/namespaces/inkscape"
   xmlns:sodipodi="http://sodipodi.sourceforge.net/DTD/sodipodi-0.dtd"
   xmlns="http://www.w3.org/2000/svg"
   xmlns:svg="http://www.w3.org/2000/svg"><defs
   id="defs48">
	

		
	</defs><sodipodi:namedview
   id="namedview46"
   pagecolor="#505050"
   bordercolor="#eeeeee"
   borderopacity="1"
   inkscape:pageshadow="0"
   inkscape:pageopacity="0"
   inkscape:pagecheckerboard="0"
   showgrid="false"
   inkscape:zoom="1.5439374"
   inkscape:cx="265.23095"
   inkscape:cy="201.43303"
   inkscape:window-width="1920"
   inkscape:window-height="1080"
   inkscape:window-x="1440"
   inkscape:window-y="0"
   inkscape:window-maximized="0"
   inkscape:current-layer="Capa_1" />

<g
   id="g15">
</g>
<g
   id="g17">
</g>
<g
   id="g19">
</g>
<g
   id="g21">
</g>
<g
   id="g23">
</g>
<g
   id="g25">
</g>
<g
   id="g27">
</g>
<g
   id="g29">
</g>
<g
   id="g31">
</g>
<g
   id="g33">
</g>
<g
   id="g35">
</g>
<g
   id="g37">
</g>
<g
   id="g39">
</g>
<g
   id="g41">
</g>
<g
   id="g43">
</g>
<path
   style="fill:#000000;stroke-width:0.65536"
   d=""
   id="path671" /><circle
   style="fill:#000000;stroke-width:0.966102"
   id="path2380"
   cx="204.8"
   cy="204.8"
   r="203.05226" /><g
   id="g458"
   transform="translate(1.3244731,101.02792)"><path
     style="fill:#ffffff;stroke-width:0.65536"
     d="m 196.86936,145.59048 c -6.13341,-1.73473 -11.23413,-6.25805 -14.18743,-12.58144 l -1.83649,-3.93216 V 72.715919 16.354959 l 1.73537,-3.70145 c 2.20993,-4.7136704 6.23351,-8.7372504 10.94718,-10.9471804 3.12029,-1.46289997 4.57607,-1.73054997 9.27201,-1.70468997 4.68034,0.0258 6.15982,0.31527 9.25787,1.81150997 4.33957,2.09584 9.25381,7.08939 11.26848,11.4503304 l 1.42821,3.09148 v 57.01632 57.016321 l -2.25051,4.15094 c -3.81049,7.02823 -10.46914,11.25575 -18.38277,11.67108 -2.34872,0.12327 -5.61208,-0.15534 -7.25192,-0.61914 z"
     id="path204" /><path
     style="fill:#ffffff;stroke-width:0.65536"
     d="m 210.87582,205.9833 c -5.89597,2.4219 -12.70113,2.01254 -18.92827,-1.13864 l -3.87231,-1.95954 -34.79544,-44.33774 -34.79543,-44.33773 -0.91999,-3.9832 c -1.17157,-5.07246 -0.49035,-10.72174 1.85344,-15.370304 1.5515,-3.077192 2.53149,-4.186498 6.24163,-7.065276 3.69783,-2.869195 5.04041,-3.55486 8.4013,-4.290442 4.70773,-1.030366 11.6565,-0.13596 15.93369,2.050889 l 3.03212,1.550258 35.20003,44.853285 35.20004,44.8533 0.79224,4.65483 c 1.34138,7.8814 -1.28687,15.31792 -7.25591,20.53027 -1.77158,1.547 -4.51079,3.34252 -6.08714,3.99004 z"
     id="path204-0" /><path
     style="fill:#ffffff;stroke-width:0.65536"
     d="m 196.07524,203.08148 c 5.89597,2.4219 12.70113,2.01255 18.92827,-1.13864 l 3.87231,-1.95954 34.79544,-44.33774 34.79543,-44.33772 0.91999,-3.9832 c 1.17157,-5.07247 0.49035,-10.72174 -1.85344,-15.370309 -1.5515,-3.077192 -2.53149,-4.186498 -6.24163,-7.065276 -3.69783,-2.869195 -5.04041,-3.55486 -8.4013,-4.290442 -4.70773,-1.030366 -11.6565,-0.13596 -15.93369,2.050889 l -3.03212,1.550258 -35.20003,44.85329 -35.20004,44.8533 -0.79224,4.65483 c -1.34138,7.8814 1.28687,15.31791 7.25591,20.53027 1.77158,1.547 4.51079,3.34252 6.08714,3.99003 z"
     id="path204-0-2" /></g><path
   style="fill:#ffffff;stroke-width:0.647695"
   d=""
   id="path2575" /><rect
   style="fill:#ffffff"
   id="rect2636"
   width="31.569317"
   height="30.268444"
   x="182.16991"
   y="230.1048" /></svg>
