<?xml version="1.0" encoding="UTF-8" standalone="no"?>
<svg xmlns:svg="http://www.w3.org/2000/svg" xmlns="http://www.w3.org/2000/svg" version="1.1" id="Layer_1" x="0px" y="0px"
   viewBox="0 0 512.001 512.001" style="enable-background:new 0 0 512.001 512.001;" xml:space="preserve">
    <path id="path7" d="M 126.308,385.694 C 37.506,296.892 30.509,157.268 105.309,60.453 97.023,66.854 89.051,73.852 81.451,81.452 c -96.401,96.401 -96.401,252.698 0,349.099 96.401,96.401 252.698,96.401 349.099,0 7.599,-7.599 14.597,-15.573 20.999,-23.858 -96.814,74.799 -236.44,67.802 -325.241,-20.999 z"
     style="fill:#AAAAAA;" opacity=".3" />
    <path id="path9" d="m 393.61753,382.19633 c -0.37588,5.23748 -0.13252,7.18794 -3.46162,8.61127 -3.32911,1.42332 -7.17683,-0.12433 -8.59353,-3.4576 1.28424,-20.32403 -8.94722,-40.9545 -28.29788,-50.45669 -2.26936,-2.81337 -1.82876,-6.94947 0.98722,-9.22777 2.81596,-2.27829 6.05161,-0.79024 9.2118,0.97853 20.27493,13.51689 30.59347,32.71535 30.15401,53.55226 z"
     style="fill:#AAAAAA;" opacity=".5"/>
    <path d="m 359.75948,148.922 c -22.618,0 -42.66248,-0.297 -54.26248,19.118 -2.592,4.338 -1.176,9.956 3.162,12.547 4.341,2.594 9.957,1.176 12.547,-3.162 8.265,-13.834 22.43748,-10.205 38.55348,-10.205 16.116,0 31.05552,-3.629 39.32052,10.205 1.713,2.868 4.749,4.458 7.864,4.458 1.597,0 3.213,-0.418 4.683,-1.297 4.338,-2.592 5.753,-8.209 3.162,-12.547 -11.601,-19.414 -32.41352,-19.117 -55.02952,-19.117 z"
     id="path15"/>
    <path d="M190.337,263.692c0-18.666-15.186-33.852-33.852-33.852h-43.396c-5.053,0-9.15,4.097-9.15,9.15  c0,5.053,4.097,9.15,9.15,9.15h13.342c-2.422,4.661-3.8,9.947-3.8,15.553c0,18.666,15.186,33.852,33.852,33.852  S190.337,282.359,190.337,263.692z"
     id="path17" />
    <path d="M375.036,229.84h-43.394c-5.053,0-9.15,4.097-9.15,9.15c0,5.053,4.097,9.15,9.15,9.15h13.342  c-2.422,4.661-3.8,9.947-3.8,15.553c0,18.666,15.186,33.852,33.852,33.852s33.852-15.186,33.852-33.852  C408.888,245.026,393.702,229.84,375.036,229.84z"
     id="path19" />
    <path d="m 365.86532,390.31458 c -3.0141,-0.0416 -5.88221,-2.65623 -9.17058,-7.10641 -2.53839,-3.43523 -8.15474,-8.36188 -15.32274,-14.14488 -30.749,-24.805 -122.373,-7.505 -155.082,1.254 -4.887,1.309 -9.899,-1.59 -11.205,-6.471 -1.308,-4.88 1.587,-9.896 6.467,-11.205 1.272,-0.342 31.584,-8.405 67.505,-12.469 13.323,-1.507 25.575,-2.259 36.748,-2.259 30.62,0 53.1,5.652 67.05,16.901 11.876,9.578 16.54385,18.84879 16.82959,27.71955 0.16275,5.05232 -1.56394,7.81935 -3.81927,7.78074 z"
     id="path21"/>
    <g id="g23">
        <circle style="fill:#FFFFFF;" cx="165.864" cy="259.664" r="9.15" id="circle25" />
        <circle style="fill:#FFFFFF;" cx="384.233" cy="259.664" r="9.15" id="circle27" />
    </g>
    <path id="path4191" d="m 149.42772,148.922 c -22.618,0 -42.66248,-0.297 -54.262475,19.118 -2.592,4.338 -1.176,9.956 3.161995,12.547 4.341,2.594 9.957,1.176 12.547,-3.162 8.265,-13.834 22.43748,-10.205 38.55348,-10.205 16.116,0 31.05552,-3.629 39.32052,10.205 1.713,2.868 4.749,4.458 7.864,4.458 1.597,0 3.213,-0.418 4.683,-1.297 4.338,-2.592 5.753,-8.209 3.162,-12.547 -11.601,-19.414 -32.41352,-19.117 -55.02952,-19.117 z" />
</svg>