<?xml version="1.0" encoding="UTF-8" standalone="no"?>
<svg xmlns="http://www.w3.org/2000/svg" version="1.1" id="Layer_1" x="0px" y="0px" viewBox="0 0 512 512" style="enable-background:new 0 0 512 512;" xml:space="preserve">
	<path style="opacity:0.3;fill:#aaaaaa" d="m 126.306,384.85107 c -88.801,-88.802 -95.798,-228.426 -20.998,-325.241001 -8.286,6.401 -16.258,13.399 -23.858,20.999 -96.401,96.401001 -96.401,252.698001 0,349.099001 96.401,96.401 252.698,96.401 349.099,0 7.599,-7.599 14.597,-15.573 20.999,-23.858 -96.815,74.799 -236.44,67.802 -325.242,-20.999 z" id="path3817" />
	<circle style="fill:#FFFFFF;" cx="146.21" cy="183.137" r="23.536" id="circle3823" />
	<circle style="fill:#FFFFFF;" cx="365.384" cy="183.137" r="23.536" id="circle3825" />
	<path d="M146.723,218.235c18.666,0,33.852-15.186,33.852-33.852s-15.186-33.852-33.852-33.852s-33.852,15.186-33.852,33.852  S128.058,218.235,146.723,218.235z M146.723,168.83c8.576,0,15.553,6.977,15.553,15.553s-6.977,15.553-15.553,15.553  s-15.553-6.977-15.553-15.553S138.148,168.83,146.723,168.83z" id="path3831" />
	<path d="M365.275,218.235c18.666,0,33.852-15.186,33.852-33.852s-15.186-33.852-33.852-33.852s-33.852,15.186-33.852,33.852  S346.609,218.235,365.275,218.235z M365.275,168.83c8.576,0,15.553,6.977,15.553,15.553s-6.977,15.553-15.553,15.553  s-15.553-6.977-15.553-15.553S356.699,168.83,365.275,168.83z" id="path3833" />
	<path style="fill:#000000" d="m 363.42383,106.2207 c -17.90702,0.59107 -36.78915,7.50293 -48.20703,21.70118 -1.59341,4.67816 5.20497,10.55542 8.47265,5.46093 18.86769,-18.03073 50.02081,-21.99507 72.10115,-7.52315 5.10607,2.69056 8.96829,8.28477 14.44573,9.70284 5.51739,-1.23942 5.84568,-9.91694 0.62927,-11.93139 -12.94575,-11.37619 -30.18854,-17.80715 -47.44177,-17.41041 z" id="path4077"/>
	<path style="fill:#000000" d="m 143.47852,105.94727 c -17.88301,0.86516 -36.76852,8.01052 -47.976567,22.375 -1.438307,4.73745 5.592287,10.26105 8.728517,5.18945 18.68302,-18.31469 49.89021,-22.48433 72.11995,-8.19225 5.08571,2.64759 9.05845,8.24503 14.55583,9.41686 5.75481,-1.85308 4.95042,-10.5324 -0.37695,-12.51172 -13.00795,-10.9064 -30.06537,-16.90655 -47.05078,-16.27734 z" id="path4079"/>
	<path style="fill:#000000;stroke-width:8.34968853" d="m 159.34107,338.21815 c 18.5254,-24.61085 55.92625,-46.39278 94.88017,-47.80639 43.7733,-1.58843 84.70189,22.18636 99.83923,44.68621 25.95589,38.58041 10.81058,49.16563 -28.4993,35.17564 -17.18227,-6.11506 -40.07726,-13.27802 -67.96471,-11.69649 -35.91342,2.03673 -62.16708,11.98686 -77.4715,16.07814 -6.43483,1.72024 -60.12659,15.82942 -20.78389,-36.43711 z" id="rect4412"/>
</svg>