<?xml version="1.0" encoding="iso-8859-1"?>
<svg version="1.1" id="Layer_1" xmlns="http://www.w3.org/2000/svg" xmlns:xlink="http://www.w3.org/1999/xlink" x="0px" y="0px"
	 viewBox="0 0 512.001 512.001" style="enable-background:new 0 0 512.001 512.001;" xml:space="preserve">
<g>
	<path style="fill:#AAAAAA;" opacity=".3" d="M126.306,385.694c-88.801-88.802-95.798-228.426-20.998-325.242
		C97.023,66.853,89.051,73.85,81.45,81.45c-96.401,96.401-96.401,252.698,0,349.099s252.698,96.401,349.099,0
		c7.599-7.599,14.597-15.573,20.999-23.858C354.733,481.492,215.108,474.494,126.306,385.694z"/>
	<path style="fill:#AAAAAA;" opacity=".5" d="M256.001,400.831c-14.756,0-29.505-2.01-43.85-6.031c-4.865-1.364-7.704-6.414-6.34-11.281
		c1.364-4.865,6.414-7.706,11.28-6.34c25.455,7.137,52.366,7.137,77.821,0c4.869-1.361,9.916,1.475,11.28,6.34
		s-1.475,9.916-6.34,11.28C285.509,398.82,270.751,400.831,256.001,400.831z"/>
</g>
<path d="M380.101,295.723c-68.432,68.43-179.778,68.428-248.203,0c-3.574-3.573-9.367-3.573-12.94,0
	c-3.573,3.573-3.573,9.367,0,12.939c37.788,37.786,87.405,56.673,137.042,56.673c49.623,0,99.263-18.896,137.042-56.673
	c3.573-3.573,3.573-9.367,0-12.939C389.468,292.15,383.676,292.149,380.101,295.723z"/>
<path d="M146.723,231.974c18.666,0,33.852-15.186,33.852-33.852s-15.186-33.852-33.852-33.852s-33.852,15.186-33.852,33.852
	S128.058,231.974,146.723,231.974z"/>
<path d="M365.275,164.27c-18.666,0-33.852,15.186-33.852,33.852s15.186,33.852,33.852,33.852s33.852-15.186,33.852-33.852
	S383.942,164.27,365.275,164.27z"/>
<g>
	<circle style="fill:#FFFFFF;" cx="155.969" cy="193.507" r="9.15"/>
	<circle style="fill:#FFFFFF;" cx="374.338" cy="193.507" r="9.15"/>
</g>
<g>
</g>
<g>
</g>
<g>
</g>
<g>
</g>
<g>
</g>
<g>
</g>
<g>
</g>
<g>
</g>
<g>
</g>
<g>
</g>
<g>
</g>
<g>
</g>
<g>
</g>
<g>
</g>
<g>
</g>
</svg>
